<svg width="19" height="19" viewBox="0 0 19 19" fill="none" xmlns="http://www.w3.org/2000/svg">
<path d="M7.15295 15.5635C4.41383 15.4086 2.02318 13.9316 0.695282 10.9398C-0.735427 7.71832 0.391175 3.87207 3.27424 1.84067C4.71144 0.828218 6.31314 0.323615 8.05986 0.460053C11.2113 0.70694 13.4624 2.31387 14.6615 5.23862C15.616 7.5678 15.3465 9.85475 14.0435 12.0107C13.9688 12.1341 13.9753 12.2002 14.076 12.3009C15.2967 13.5147 16.5132 14.7319 17.7285 15.9511C18.2934 16.5185 18.3876 17.2971 17.9709 17.9165C17.4352 18.7124 16.3476 18.8239 15.6452 18.1417C15.0543 17.5678 14.4775 16.9787 13.8953 16.3962C13.2459 15.7465 12.5944 15.0989 11.9505 14.4449C11.8466 14.3399 11.7784 14.3247 11.6485 14.407C10.4375 15.1715 9.05984 15.5667 7.15295 15.5646V15.5635ZM2.35651 7.98902C2.35001 10.9051 4.7136 13.2841 7.62805 13.2949C10.5393 13.3058 12.9245 10.9365 12.9342 8.02368C12.9451 5.1011 10.5771 2.71777 7.65511 2.71019C4.74391 2.70261 2.363 5.07511 2.35651 7.98902Z" fill="white"/>
</svg>
